# xmcd
#
# Track frame offsets:
#	150
#	13472
#	25342
#	43685
#	62001
#	77482
#	97921
#	111468
#	127711
#	141503
#	159290
#	178454
#	201170
#	215001
#	228969
#	253503
#	274544
#	290793
#	313211
#
# Disc length: 4340 seconds
#
# Revision: 1
# Processed by: cddbd v1.5.1PL0 Copyright (c) Steve Scherf et al.
# Submitted via: audiograbber 1.83.01
#
DISCID=1b10f213
DTITLE=Scot Joplin - Scot Joplin - Best of
DYEAR=1900
DGENRE=
TTITLE0=The Maple Leaf Rag
TTITLE1=The Entertainer
TTITLE2=A Breeze from Alabama
TTITLE3=Antoinette
TTITLE4=Pineapple Rag
TTITLE5=The Strenuous Life
TTITLE6=The Cascades
TTITLE7=The Easy Winners
TTITLE8=Elite Syncopations
TTITLE9=The Sycamore
TTITLE10=Weeping Willow
TTITLE11=Eugenia
TTITLE12=Palm Leaf Rag
TTITLE13=Peacherine Rag
TTITLE14=Bethena
TTITLE15=The Crysanthemum
TTITLE16=Cleopha
TTITLE17=The Ragtime Dance
TTITLE18=Wall Street Rag
EXTD=
EXTT0=
EXTT1=
EXTT2=
EXTT3=
EXTT4=
EXTT5=
EXTT6=
EXTT7=
EXTT8=
EXTT9=
EXTT10=
EXTT11=
EXTT12=
EXTT13=
EXTT14=
EXTT15=
EXTT16=
EXTT17=
EXTT18=
PLAYORDER=
